<svg xmlns="http://www.w3.org/2000/svg" viewBox="0 0 1700 1000" width="1700" height="1000">
<style>
  .l{stroke:currentColor;fill:none;stroke-width:1.1;stroke-linecap:round;stroke-linejoin:round}
  .t{stroke:currentColor;fill:none;stroke-width:0.55;stroke-linecap:round}
  .k{stroke:currentColor;fill:none;stroke-width:1.8;stroke-linejoin:round}
  .d{stroke:currentColor;fill:none;stroke-width:0.8;stroke-dasharray:5 3}
  .c{stroke:currentColor;fill:none;stroke-width:0.6;stroke-dasharray:14 3 3 3}
  .h{stroke:currentColor;fill:none;stroke-width:0.7;stroke-dasharray:2 2}
  .st{fill:currentColor;fill-opacity:0.22;stroke:currentColor;stroke-width:1.1}
  .conc{fill:url(#conc);stroke:currentColor;stroke-width:1.1}
  .grout{fill:url(#grout);stroke:currentColor;stroke-width:0.8}
  .bag{fill:currentColor;fill-opacity:0.08;stroke:currentColor;stroke-width:0.8;stroke-dasharray:5 3}
  text{font-family:Inter,Helvetica,Arial,sans-serif;fill:currentColor}
  .n{font-size:11px}.s{font-size:9.5px}.b{font-size:13px;font-weight:700}.tt{font-size:16px;font-weight:700}
  .w{font-size:9px}
</style>
<defs>
  <pattern id="conc" width="9" height="9" patternUnits="userSpaceOnUse" patternTransform="rotate(45)">
    <line x1="0" y1="0" x2="0" y2="9" stroke="currentColor" stroke-width="0.6" stroke-opacity="0.75"/>
    <circle cx="5" cy="3" r="0.7" fill="currentColor" fill-opacity="0.6"/>
  </pattern>
  <pattern id="grout" width="5" height="5" patternUnits="userSpaceOnUse" patternTransform="rotate(45)">
    <line x1="0" y1="0" x2="0" y2="5" stroke="currentColor" stroke-width="0.5" stroke-opacity="0.7"/>
    <line x1="0" y1="2.5" x2="5" y2="2.5" stroke="currentColor" stroke-width="0.5" stroke-opacity="0.7"/>
  </pattern>
  <marker id="ar" markerWidth="8" markerHeight="8" refX="7" refY="4" orient="auto-start-reverse" markerUnits="userSpaceOnUse">
    <path d="M0,1 L7,4 L0,7 z" fill="currentColor"/></marker>
</defs>
<text x="110" y="40" class="tt">ELEVATION (looking at the bag line)</text>
<line x1="24.2" y1="400.0" x2="1185.8" y2="400.0" class="k"/>
<text x="27.5" y="396.0" class="s" text-anchor="start">FFL ±0</text>
<rect x="50.6" y="400.0" width="118.8" height="39.6" class="d"/>
<rect x="91.8" y="397.4" width="36.3" height="2.6" class="grout"/>
<rect x="91.8" y="395.2" width="36.3" height="2.1" class="st"/>
<rect x="101.8" y="204.4" width="16.5" height="190.9" class="st"/>
<rect x="96.1" y="202.0" width="27.7" height="2.4" class="st"/>
<rect x="100.1" y="268.0" width="19.8" height="125.1" class="h"/>
<rect x="347.6" y="400.0" width="118.8" height="39.6" class="d"/>
<rect x="388.9" y="397.4" width="36.3" height="2.6" class="grout"/>
<rect x="388.9" y="395.2" width="36.3" height="2.1" class="st"/>
<rect x="398.8" y="204.4" width="16.5" height="190.9" class="st"/>
<rect x="393.1" y="202.0" width="27.7" height="2.4" class="st"/>
<rect x="397.1" y="268.0" width="19.8" height="125.1" class="h"/>
<rect x="743.6" y="400.0" width="118.8" height="39.6" class="d"/>
<rect x="784.9" y="397.4" width="36.3" height="2.6" class="grout"/>
<rect x="784.9" y="395.2" width="36.3" height="2.1" class="st"/>
<rect x="794.8" y="204.4" width="16.5" height="190.9" class="st"/>
<rect x="789.1" y="202.0" width="27.7" height="2.4" class="st"/>
<rect x="793.1" y="268.0" width="19.8" height="125.1" class="h"/>
<rect x="1040.6" y="400.0" width="118.8" height="39.6" class="d"/>
<rect x="1081.8" y="397.4" width="36.3" height="2.6" class="grout"/>
<rect x="1081.8" y="395.2" width="36.3" height="2.1" class="st"/>
<rect x="1091.8" y="204.4" width="16.5" height="190.9" class="st"/>
<rect x="1086.1" y="202.0" width="27.7" height="2.4" class="st"/>
<rect x="1090.1" y="268.0" width="19.8" height="125.1" class="h"/>
<rect x="101.8" y="185.5" width="1006.5" height="16.5" class="st"/>
<rect x="438.7" y="179.9" width="2.6" height="27.7" class="st"/>
<rect x="768.7" y="179.9" width="2.6" height="27.7" class="st"/>
<rect x="199.1" y="202.0" width="19.8" height="1.1" class="st"/>
<rect x="205.7" y="203.1" width="6.6" height="7.3" class="st"/>
<line x1="209.0" y1="210.3" x2="209.0" y2="248.2" class="l"/>
<circle cx="209.0" cy="212.6" r="2.0" class="l"/>
<rect x="197.1" y="248.2" width="23.8" height="132.0" class="bag" rx="5.9"/>
<rect x="331.1" y="202.0" width="19.8" height="1.1" class="st"/>
<rect x="337.7" y="203.1" width="6.6" height="7.3" class="st"/>
<line x1="341.0" y1="210.3" x2="341.0" y2="248.2" class="l"/>
<circle cx="341.0" cy="212.6" r="2.0" class="l"/>
<rect x="329.1" y="248.2" width="23.8" height="132.0" class="bag" rx="5.9"/>
<rect x="463.1" y="202.0" width="19.8" height="1.1" class="st"/>
<rect x="469.7" y="203.1" width="6.6" height="7.3" class="st"/>
<line x1="473.0" y1="210.3" x2="473.0" y2="248.2" class="l"/>
<circle cx="473.0" cy="212.6" r="2.0" class="l"/>
<rect x="461.1" y="248.2" width="23.8" height="132.0" class="bag" rx="5.9"/>
<rect x="595.1" y="202.0" width="19.8" height="1.1" class="st"/>
<rect x="601.7" y="203.1" width="6.6" height="7.3" class="st"/>
<line x1="605.0" y1="210.3" x2="605.0" y2="248.2" class="l"/>
<circle cx="605.0" cy="212.6" r="2.0" class="l"/>
<rect x="593.1" y="248.2" width="23.8" height="132.0" class="bag" rx="5.9"/>
<rect x="727.1" y="202.0" width="19.8" height="1.1" class="st"/>
<rect x="733.7" y="203.1" width="6.6" height="7.3" class="st"/>
<line x1="737.0" y1="210.3" x2="737.0" y2="248.2" class="l"/>
<circle cx="737.0" cy="212.6" r="2.0" class="l"/>
<rect x="725.1" y="248.2" width="23.8" height="132.0" class="bag" rx="5.9"/>
<rect x="859.1" y="202.0" width="19.8" height="1.1" class="st"/>
<rect x="865.7" y="203.1" width="6.6" height="7.3" class="st"/>
<line x1="869.0" y1="210.3" x2="869.0" y2="248.2" class="l"/>
<circle cx="869.0" cy="212.6" r="2.0" class="l"/>
<rect x="857.1" y="248.2" width="23.8" height="132.0" class="bag" rx="5.9"/>
<rect x="991.1" y="202.0" width="19.8" height="1.1" class="st"/>
<rect x="997.7" y="203.1" width="6.6" height="7.3" class="st"/>
<line x1="1001.0" y1="210.3" x2="1001.0" y2="248.2" class="l"/>
<circle cx="1001.0" cy="212.6" r="2.0" class="l"/>
<rect x="989.1" y="248.2" width="23.8" height="132.0" class="bag" rx="5.9"/>
<text x="605.0" y="167.0" class="s" text-anchor="middle">SPINE BEAM 250x250x9.0 SHS C350L0, continuous, 3 x 5.0 m lengths, bolted flange-plate splices at 5.0 and 10.0 m</text>
<line x1="110.0" y1="180.1" x2="110.0" y2="146.3" class="t"/>
<line x1="407.0" y1="180.1" x2="407.0" y2="146.3" class="t"/>
<line x1="110.0" y1="149.2" x2="407.0" y2="149.2" class="t" marker-start="url(#ar)" marker-end="url(#ar)"/>
<text x="258.5" y="146.2" class="s" text-anchor="middle">4500</text>
<line x1="407.0" y1="180.1" x2="407.0" y2="146.3" class="t"/>
<line x1="803.0" y1="180.1" x2="803.0" y2="146.3" class="t"/>
<line x1="407.0" y1="149.2" x2="803.0" y2="149.2" class="t" marker-start="url(#ar)" marker-end="url(#ar)"/>
<text x="605.0" y="146.2" class="s" text-anchor="middle">6000</text>
<line x1="803.0" y1="180.1" x2="803.0" y2="146.3" class="t"/>
<line x1="1100.0" y1="180.1" x2="1100.0" y2="146.3" class="t"/>
<line x1="803.0" y1="149.2" x2="1100.0" y2="149.2" class="t" marker-start="url(#ar)" marker-end="url(#ar)"/>
<text x="951.5" y="146.2" class="s" text-anchor="middle">4500</text>
<line x1="110.0" y1="176.1" x2="110.0" y2="117.8" class="t"/>
<line x1="1100.0" y1="176.1" x2="1100.0" y2="117.8" class="t"/>
<line x1="110.0" y1="122.8" x2="1100.0" y2="122.8" class="t" marker-start="url(#ar)" marker-end="url(#ar)"/>
<text x="605.0" y="119.8" class="s" text-anchor="middle">15 000 overall (column centres)</text>
<line x1="209.0" y1="453.0" x2="209.0" y2="474.4" class="t"/>
<line x1="341.0" y1="453.0" x2="341.0" y2="474.4" class="t"/>
<line x1="209.0" y1="472.6" x2="341.0" y2="472.6" class="t" marker-start="url(#ar)" marker-end="url(#ar)"/>
<text x="275.0" y="469.6" class="s" text-anchor="middle">2000</text>
<line x1="341.0" y1="453.0" x2="341.0" y2="474.4" class="t"/>
<line x1="473.0" y1="453.0" x2="473.0" y2="474.4" class="t"/>
<line x1="341.0" y1="472.6" x2="473.0" y2="472.6" class="t" marker-start="url(#ar)" marker-end="url(#ar)"/>
<text x="407.0" y="469.6" class="s" text-anchor="middle">2000</text>
<line x1="473.0" y1="453.0" x2="473.0" y2="474.4" class="t"/>
<line x1="605.0" y1="453.0" x2="605.0" y2="474.4" class="t"/>
<line x1="473.0" y1="472.6" x2="605.0" y2="472.6" class="t" marker-start="url(#ar)" marker-end="url(#ar)"/>
<text x="539.0" y="469.6" class="s" text-anchor="middle">2000</text>
<line x1="605.0" y1="453.0" x2="605.0" y2="474.4" class="t"/>
<line x1="737.0" y1="453.0" x2="737.0" y2="474.4" class="t"/>
<line x1="605.0" y1="472.6" x2="737.0" y2="472.6" class="t" marker-start="url(#ar)" marker-end="url(#ar)"/>
<text x="671.0" y="469.6" class="s" text-anchor="middle">2000</text>
<line x1="737.0" y1="453.0" x2="737.0" y2="474.4" class="t"/>
<line x1="869.0" y1="453.0" x2="869.0" y2="474.4" class="t"/>
<line x1="737.0" y1="472.6" x2="869.0" y2="472.6" class="t" marker-start="url(#ar)" marker-end="url(#ar)"/>
<text x="803.0" y="469.6" class="s" text-anchor="middle">2000</text>
<line x1="869.0" y1="453.0" x2="869.0" y2="474.4" class="t"/>
<line x1="1001.0" y1="453.0" x2="1001.0" y2="474.4" class="t"/>
<line x1="869.0" y1="472.6" x2="1001.0" y2="472.6" class="t" marker-start="url(#ar)" marker-end="url(#ar)"/>
<text x="935.0" y="469.6" class="s" text-anchor="middle">2000</text>
<line x1="110.0" y1="453.0" x2="110.0" y2="474.4" class="t"/>
<line x1="209.0" y1="453.0" x2="209.0" y2="474.4" class="t"/>
<line x1="110.0" y1="472.6" x2="209.0" y2="472.6" class="t" marker-start="url(#ar)" marker-end="url(#ar)"/>
<text x="159.5" y="469.6" class="s" text-anchor="middle">1500</text>
<line x1="1001.0" y1="453.0" x2="1001.0" y2="474.4" class="t"/>
<line x1="1100.0" y1="453.0" x2="1100.0" y2="474.4" class="t"/>
<line x1="1001.0" y1="472.6" x2="1100.0" y2="472.6" class="t" marker-start="url(#ar)" marker-end="url(#ar)"/>
<text x="1050.5" y="469.6" class="s" text-anchor="middle">1500</text>
<line x1="1114.8" y1="400.0" x2="1206.9" y2="400.0" class="t"/>
<line x1="1114.8" y1="202.0" x2="1206.9" y2="202.0" class="t"/>
<line x1="1199.0" y1="400.0" x2="1199.0" y2="202.0" class="t" marker-start="url(#ar)" marker-end="url(#ar)"/>
<text x="1199.0" y="298.0" class="s" text-anchor="middle" transform="rotate(-90 1199.0 298.0)">3 000 soffit</text>
<line x1="1122.8" y1="400.0" x2="1263.9" y2="400.0" class="t"/>
<line x1="1122.8" y1="185.5" x2="1263.9" y2="185.5" class="t"/>
<line x1="1251.8" y1="400.0" x2="1251.8" y2="185.5" class="t" marker-start="url(#ar)" marker-end="url(#ar)"/>
<text x="1251.8" y="289.8" class="s" text-anchor="middle" transform="rotate(-90 1251.8 289.8)">3 250 top of steel</text>
<line x1="1114.8" y1="439.6" x2="1206.9" y2="439.6" class="t"/>
<line x1="1114.8" y1="400.0" x2="1206.9" y2="400.0" class="t"/>
<line x1="1199.0" y1="439.6" x2="1199.0" y2="400.0" class="t" marker-start="url(#ar)" marker-end="url(#ar)"/>
<text x="1199.0" y="416.8" class="s" text-anchor="middle" transform="rotate(-90 1199.0 416.8)">600</text>
<line x1="60.8" y1="400.0" x2="42.4" y2="400.0" class="t"/>
<line x1="60.8" y1="268.0" x2="42.4" y2="268.0" class="t"/>
<line x1="44.0" y1="400.0" x2="44.0" y2="268.0" class="t" marker-start="url(#ar)" marker-end="url(#ar)"/>
<text x="44.0" y="331.0" class="s" text-anchor="middle" transform="rotate(-90 44.0 331.0)">2 000 padding</text>
<line x1="935.0" y1="419.8" x2="935.0" y2="159.1" class="c"/>
<text x="935.0" y="155.8" class="b" text-anchor="middle">A</text>
<text x="935.0" y="429.7" class="b" text-anchor="middle">A</text>
<text x="110" y="492" class="s">HANGERS: 7 off at 2 000 c/c, 200x300x16 plate + 20 mm lug, 3.25 t bolt-type bow shackle + 2 t bearing swivel each. Posted SWL 100 kg per hanger. See DET-02.</text>
<text x="110" y="507" class="s">COLUMNS: 4 off 250x250x12.5 SHS C350L0, fixed base on 550x550x32 plate with 4 x M24 cast-in anchors into 1 800 sq x 600 deep N32 pad footings. See DET-01.</text>
<text x="110" y="522" class="s">BAGS SHOWN: 1.8 m Muay Thai bags, bottom 300 above floor on 0.7 m shackle/swivel/chain sets. Columns padded 25 mm closed-cell foam to 2.0 m. Clear headroom to roof structure 3.6 m min.</text>
<text x="110" y="570" class="tt">PLAN</text>
<rect x="50.6" y="730.6" width="118.8" height="118.8" class="d"/>
<rect x="91.8" y="771.9" width="36.3" height="36.3" class="l"/>
<rect x="101.8" y="781.8" width="16.5" height="16.5" class="st"/>
<circle cx="95.2" cy="804.9" r="1.0" class="l"/>
<circle cx="95.2" cy="775.1" r="1.0" class="l"/>
<circle cx="124.8" cy="804.9" r="1.0" class="l"/>
<circle cx="124.8" cy="775.1" r="1.0" class="l"/>
<rect x="347.6" y="730.6" width="118.8" height="118.8" class="d"/>
<rect x="388.9" y="771.9" width="36.3" height="36.3" class="l"/>
<rect x="398.8" y="781.8" width="16.5" height="16.5" class="st"/>
<circle cx="392.2" cy="804.9" r="1.0" class="l"/>
<circle cx="392.2" cy="775.1" r="1.0" class="l"/>
<circle cx="421.9" cy="804.9" r="1.0" class="l"/>
<circle cx="421.9" cy="775.1" r="1.0" class="l"/>
<rect x="743.6" y="730.6" width="118.8" height="118.8" class="d"/>
<rect x="784.9" y="771.9" width="36.3" height="36.3" class="l"/>
<rect x="794.8" y="781.8" width="16.5" height="16.5" class="st"/>
<circle cx="788.1" cy="804.9" r="1.0" class="l"/>
<circle cx="788.1" cy="775.1" r="1.0" class="l"/>
<circle cx="817.9" cy="804.9" r="1.0" class="l"/>
<circle cx="817.9" cy="775.1" r="1.0" class="l"/>
<rect x="1040.6" y="730.6" width="118.8" height="118.8" class="d"/>
<rect x="1081.8" y="771.9" width="36.3" height="36.3" class="l"/>
<rect x="1091.8" y="781.8" width="16.5" height="16.5" class="st"/>
<circle cx="1085.2" cy="804.9" r="1.0" class="l"/>
<circle cx="1085.2" cy="775.1" r="1.0" class="l"/>
<circle cx="1114.8" cy="804.9" r="1.0" class="l"/>
<circle cx="1114.8" cy="775.1" r="1.0" class="l"/>
<rect x="101.8" y="781.8" width="1006.5" height="16.5" class="l"/>
<circle cx="209.0" cy="790.0" r="11.9" class="bag"/>
<circle cx="209.0" cy="790.0" r="66.0" class="h"/>
<circle cx="341.0" cy="790.0" r="11.9" class="bag"/>
<circle cx="341.0" cy="790.0" r="66.0" class="h"/>
<circle cx="473.0" cy="790.0" r="11.9" class="bag"/>
<circle cx="473.0" cy="790.0" r="66.0" class="h"/>
<circle cx="605.0" cy="790.0" r="11.9" class="bag"/>
<circle cx="605.0" cy="790.0" r="66.0" class="h"/>
<circle cx="737.0" cy="790.0" r="11.9" class="bag"/>
<circle cx="737.0" cy="790.0" r="66.0" class="h"/>
<circle cx="869.0" cy="790.0" r="11.9" class="bag"/>
<circle cx="869.0" cy="790.0" r="66.0" class="h"/>
<circle cx="1001.0" cy="790.0" r="11.9" class="bag"/>
<circle cx="1001.0" cy="790.0" r="66.0" class="h"/>
<rect x="438.7" y="776.1" width="2.6" height="27.7" class="st"/>
<rect x="768.7" y="776.1" width="2.6" height="27.7" class="st"/>
<line x1="24.2" y1="790.0" x2="1185.8" y2="790.0" class="c"/>
<line x1="347.6" y1="862.3" x2="347.6" y2="880.7" class="t"/>
<line x1="466.4" y1="862.3" x2="466.4" y2="880.7" class="t"/>
<line x1="347.6" y1="879.1" x2="466.4" y2="879.1" class="t" marker-start="url(#ar)" marker-end="url(#ar)"/>
<text x="407.0" y="876.1" class="s" text-anchor="middle">1 800 sq pad</text>
<line x1="34.9" y1="856.0" x2="19.6" y2="856.0" class="t"/>
<line x1="34.9" y1="724.0" x2="19.6" y2="724.0" class="t"/>
<line x1="20.9" y1="856.0" x2="20.9" y2="724.0" class="t" marker-start="url(#ar)" marker-end="url(#ar)"/>
<text x="20.9" y="787.0" class="s" text-anchor="middle" transform="rotate(-90 20.9 787.0)">2 000 clear zone</text>
<line x1="532.4" y1="691.0" x2="473.0" y2="724.0" class="t" marker-end="url(#ar)"/>
<text x="536.4" y="695.0" class="s" text-anchor="start">Dashed circles: 1.0 m radius swing envelope of a hard-hit bag.</text>
<text x="536.4" y="707.0" class="s" text-anchor="start">Keep 2.0 m clear each side of the bag line and 1.5 m beyond the end bags.</text>
<line x1="869.0" y1="694.3" x2="817.9" y2="775.1" class="t" marker-end="url(#ar)"/>
<text x="873.0" y="698.3" class="s" text-anchor="start">Anchor group 4 x M24 at 450 x 450 gauge on 550 x 550 x 32 base plate</text>
<text x="1370" y="40" class="tt">SECTION A-A</text>
<line x1="1363.0" y1="430.0" x2="1597.0" y2="430.0" class="k"/>
<rect x="1399.0" y="430.0" width="162.0" height="54.0" class="conc"/>
<rect x="1390.0" y="484.0" width="180.0" height="4.5" class="grout"/>
<rect x="1363.0" y="430.0" width="36.0" height="13.5" class="conc"/>
<rect x="1561.0" y="430.0" width="36.0" height="13.5" class="conc"/>
<rect x="1455.2" y="426.4" width="49.5" height="3.6" class="grout"/>
<rect x="1455.2" y="423.5" width="49.5" height="2.9" class="st"/>
<rect x="1468.8" y="163.2" width="22.5" height="260.3" class="st"/>
<rect x="1461.1" y="160.0" width="37.8" height="3.2" class="st"/>
<rect x="1468.8" y="137.5" width="22.5" height="22.5" class="st"/>
<rect x="1458.7" y="416.5" width="2.2" height="54.0" class="l"/>
<rect x="1455.2" y="470.5" width="9.0" height="1.4" class="st"/>
<rect x="1499.2" y="416.5" width="2.2" height="54.0" class="l"/>
<rect x="1495.8" y="470.5" width="9.0" height="1.4" class="st"/>
<rect x="1463.8" y="223.0" width="32.4" height="180.0" class="bag" rx="8.1"/>
<line x1="1480.0" y1="171.3" x2="1480.0" y2="223.0" class="d"/>
<rect x="1466.5" y="250.0" width="27.0" height="170.6" class="h"/>
<line x1="1399.0" y1="509.2" x2="1399.0" y2="525.9" class="t"/>
<line x1="1561.0" y1="509.2" x2="1561.0" y2="525.9" class="t"/>
<line x1="1399.0" y1="524.5" x2="1561.0" y2="524.5" class="t" marker-start="url(#ar)" marker-end="url(#ar)"/>
<text x="1480.0" y="521.5" class="s" text-anchor="middle">1 800</text>
<line x1="1582.4" y1="484.0" x2="1603.3" y2="484.0" class="t"/>
<line x1="1582.4" y1="430.0" x2="1603.3" y2="430.0" class="t"/>
<line x1="1601.5" y1="484.0" x2="1601.5" y2="430.0" class="t" marker-start="url(#ar)" marker-end="url(#ar)"/>
<text x="1601.5" y="454.0" class="s" text-anchor="middle" transform="rotate(-90 1601.5 454.0)">600</text>
<line x1="1582.4" y1="430.0" x2="1603.3" y2="430.0" class="t"/>
<line x1="1582.4" y1="160.0" x2="1603.3" y2="160.0" class="t"/>
<line x1="1601.5" y1="430.0" x2="1601.5" y2="160.0" class="t" marker-start="url(#ar)" marker-end="url(#ar)"/>
<text x="1601.5" y="292.0" class="s" text-anchor="middle" transform="rotate(-90 1601.5 292.0)">3 000</text>
<line x1="1468.8" y1="122.0" x2="1468.8" y2="109.4" class="t"/>
<line x1="1491.2" y1="122.0" x2="1491.2" y2="109.4" class="t"/>
<line x1="1468.8" y1="110.5" x2="1491.2" y2="110.5" class="t" marker-start="url(#ar)" marker-end="url(#ar)"/>
<text x="1480.0" y="107.5" class="s" text-anchor="middle">250</text>
<line x1="1534.0" y1="277.0" x2="1491.2" y2="304.0" class="t" marker-end="url(#ar)"/>
<text x="1538.0" y="281.0" class="s" text-anchor="start">250x250x12.5 SHS</text>
<line x1="1421.5" y1="461.5" x2="1459.8" y2="457.0" class="t" marker-end="url(#ar)"/>
<text x="1417.5" y="465.5" class="s" text-anchor="end">M24 8.8 cast-in</text>
<text x="1417.5" y="477.5" class="s" text-anchor="end">anchors, h_ef 450</text>
<line x1="1417.0" y1="511.0" x2="1376.5" y2="436.8" class="t" marker-end="url(#ar)"/>
<text x="1413.0" y="515.0" class="s" text-anchor="end">Slab doweled</text>
<text x="1413.0" y="527.0" class="s" text-anchor="end">to pad, N12 @ 300</text>
<rect x="1" y="1" width="1698" height="998" class="t"/>
<rect x="1170" y="912" width="520" height="78" class="l"/>
<line x1="1170" y1="938" x2="1690" y2="938" class="t"/>
<line x1="1540" y1="912" x2="1540" y2="990" class="t"/>
<text x="1178" y="930" class="b">BAG GANTRY — 15 m, 7 HANGERS</text>
<text x="1178" y="956" class="n">GENERAL ARRANGEMENT — ELEVATION, PLAN, SECTION A-A</text>
<text x="1178" y="972" class="s">Dimensions mm, not to scale. Steel AS 1163 C350L0 / AS/NZS 3678-350, HDG to AS/NZS 4680.</text>
<text x="1178" y="984" class="s">Concrete N32 to AS 3600. Bolts Gr 8.8 HDG. Welds SP to AS/NZS 1554.1.</text>
<text x="1548" y="930" class="b">GA-01</text>
<text x="1548" y="956" class="s">Rev P1 — PRELIMINARY</text>
<text x="1548" y="970" class="s">Not for construction until</text>
<text x="1548" y="984" class="s">certified by an engineer.</text>
<text x="14" y="974" class="s">Beam soffit 3.0 m suits 1.8 m Muay Thai bags (bottom 0.3 m) and 1.2-1.5 m boxing bags on 0.6-0.9 m chain sets. Design bag mass 100 kg per hanger.</text>
<text x="14" y="986" class="s">Six-bag layout: use hangers 1-3 and 5-7; the 7.5 m position then suits a double-end or speed bag. Do not tie the frame to walls or roof without a separate check.</text></svg>